<svg width="740" height="740" viewBox="0 0 740 740" xmlns="http://www.w3.org/2000/svg" xmlns:xlink="http://www.w3.org/1999/xlink" fill="none" overflow="hidden"><mask maskUnits="userSpaceOnUse" x="62" y="40" width="616" height="616" id="mask0_34_35"><circle cx="370" cy="348" r="308" fill="#FFBF00"/></mask><circle cx="370" cy="370" r="366.5" stroke="#FFFFFF" stroke-width="7" fill="#FF9A00"/><circle cx="370" cy="348" r="341" fill="#FFBF00"/><path d="M153.458 399.019C153.458 384.935 157.313 377.604 164.644 372.009L389.987 465C378.604 499.727 388.088 531.058 399.44 539.856L169.278 434.711C162.75 429.602 153.458 416.961 153.458 399.019Z" fill="#FFDA6A"/><path d="M159.383 365.116C161.837 363.243 165.1 362.816 167.952 363.993L393.295 456.984C397.49 458.716 399.641 463.389 398.227 467.701 392.994 483.668 392.603 498.73 394.725 510.629 396.93 522.996 401.544 530.516 404.752 533.002 408.233 535.699 409.139 540.576 406.861 544.344 404.582 548.112 399.842 549.574 395.837 547.744L165.674 442.599C165.054 442.315 164.47 441.96 163.933 441.54 155.574 434.998 144.786 419.952 144.786 399.019 144.786 391.232 145.844 384.591 148.359 378.852 150.93 372.981 154.767 368.639 159.383 365.116ZM169.278 434.711C162.75 429.602 153.458 416.961 153.458 399.019 153.458 384.935 157.313 377.604 164.644 372.009L389.987 465C382.076 489.136 384.244 511.632 390.114 526.062 392.689 532.394 395.978 537.173 399.44 539.856L169.278 434.711Z" fill="#D17724" fill-rule="evenodd" clip-rule="evenodd"/><path d="M587.542 283.438 369.572 199.145 163.523 372.839 400.224 472.458 587.542 283.438Z" fill="#D17724"/><path d="M363.983 192.514C366.405 190.473 369.746 189.914 372.7 191.056L590.67 275.349C593.399 276.405 595.412 278.765 596.023 281.626 596.634 284.487 595.761 287.463 593.702 289.542L406.384 478.562C403.893 481.076 400.123 481.824 396.861 480.451L160.159 380.832C157.377 379.661 155.404 377.128 154.95 374.144 154.496 371.16 155.626 368.154 157.934 366.209L363.983 192.514ZM369.573 199.144 587.542 283.437 400.225 472.458 163.523 372.839 369.573 199.144Z" fill="#D17724" fill-rule="evenodd" clip-rule="evenodd"/><path d="M462.913 303.23 367.607 265.802 349.312 281.5 443.814 321.076 462.913 303.23Z" fill="#FFDA6A"/><path d="M587.351 348.084C566.515 331.107 570.374 303.904 586.387 283.84L391.528 467.892C379.568 496.639 389.274 524.432 399.633 539.758L587.351 348.084Z" fill="#FFDA6A"/><path d="M592.258 277.458C595.609 280.54 596.005 285.69 593.165 289.249 586.063 298.148 582.009 308.215 581.718 317.394 581.437 326.279 584.626 334.677 592.829 341.362 594.719 342.901 595.873 345.165 596.01 347.599 596.146 350.032 595.252 352.411 593.547 354.152L405.829 545.826C404.006 547.686 401.445 548.629 398.851 548.394 396.258 548.16 393.907 546.772 392.448 544.614 381.06 527.765 370.081 496.865 383.522 464.561 383.99 463.437 384.689 462.424 385.574 461.588L580.432 277.535C583.742 274.409 588.907 274.375 592.258 277.458ZM586.387 283.84 391.528 467.892C381.369 492.309 386.842 516.039 395.069 532.024 396.528 534.859 398.073 537.45 399.633 539.758L587.351 348.084C585.212 346.341 583.333 344.491 581.701 342.551 573.042 332.259 571.327 319.462 574.531 306.967 576.605 298.878 580.74 290.915 586.387 283.84Z" fill="#D17724" fill-rule="evenodd" clip-rule="evenodd"/><path d="M575.226 345.842C576.891 347.563 576.847 350.308 575.126 351.973L442.392 480.463C440.671 482.129 437.926 482.084 436.261 480.363 434.595 478.643 434.64 475.898 436.36 474.232L569.095 345.743C570.815 344.077 573.56 344.122 575.226 345.842Z" fill="#D17724" fill-rule="evenodd" clip-rule="evenodd"/><path d="M567.571 335.105C569.2 336.86 569.098 339.603 567.342 341.232L481.683 420.718C479.927 422.347 477.184 422.245 475.555 420.489 473.926 418.734 474.029 415.991 475.784 414.362L561.444 334.876C563.199 333.247 565.943 333.349 567.571 335.105Z" fill="#D17724" fill-rule="evenodd" clip-rule="evenodd"/><path d="M200.367 423.127C201.305 420.923 203.851 419.897 206.054 420.835L288.662 455.995C290.865 456.933 291.891 459.479 290.953 461.683 290.015 463.886 287.469 464.912 285.265 463.974L202.658 428.814C200.455 427.876 199.429 425.33 200.367 423.127Z" fill="#D17724" fill-rule="evenodd" clip-rule="evenodd"/><g mask="url(#mask0_34_35)"><g opacity="0.35"><path d="M-58.1022 390.663 660.719-209.593C675.42-221.869 694.877-226.851 713.668-223.152 761.422-213.75 781.266-156.315 749.5-119.44L138.29 590.091C79.6074 658.214-27.088 654.4-80.7581 582.262-125.223 522.497-115.28 438.409-58.1022 390.663Z" fill="#FFFFFF"/><path d="M208.273 670.08 905.48-187.488C912.987-196.722 924.254-202.082 936.154-202.082 968.504-202.082 987.159-165.347 968.074-139.227L316.028 753.161C293.046 784.614 248.403 790.395 218.168 765.833 188.987 742.128 184.556 699.252 208.273 670.08Z" fill="#FFFFFF"/></g></g></svg>