<svg width="175" height="178" viewBox="0 0 175 178" xmlns="http://www.w3.org/2000/svg" xmlns:xlink="http://www.w3.org/1999/xlink" fill="none" overflow="hidden"><mask maskUnits="userSpaceOnUse" x="6" y="0" width="162" height="162" id="mask0_23_371"><rect x="6" y="0" rx="23" width="162" height="162" fill="#FFBF00"/></mask><rect x="0" y="0" rx="33" width="175" height="178" fill="#FF9A00"/><rect x="6" y="0" rx="23" width="162" height="162" fill="#FFBF00"/><rect x="14" y="8" rx="23" width="146" height="146" fill="#FF9A00"/><rect x="17" y="9" rx="23" width="140" height="140" fill="#FFBF00"/><path d="M147.664 22.8944 144.673 19.041C143.695 17.7812 142.266 16.9506 140.688 16.7246 137.754 16.3047 134.738 18.0995 135.075 21.0437 135.517 24.9043 137.866 28.3548 140.703 31.1249 144.071 34.4137 149 31.5013 149 26.794 149 25.3819 148.53 24.0099 147.664 22.8944Z" fill="#D9D9D9"/><path d="M89.5964 36.8278C88.1595 35.7241 86.16 35.7241 84.7231 36.8278L36.5712 73.8146C33.5411 76.1421 35.187 80.9868 39.0078 80.9868L52.8624 80.9868 52.8624 116.212C52.8624 121.183 56.8919 125.212 61.8624 125.212L112.457 125.212C117.428 125.212 121.457 121.183 121.457 116.212L121.457 80.9868 135.312 80.9868C139.133 80.9868 140.778 76.1421 137.748 73.8146L89.5964 36.8278Z" fill="#D17724" fill-rule="evenodd" clip-rule="evenodd"/><g mask="url(#mask0_23_371)"><g opacity="0.35"><path d="M-29.6749 101.04 122.242-21.1727C125.261-23.6011 129.193-24.5842 132.999-23.8623 143.111-21.9444 147.256-9.72082 140.395-2.04831L10.4323 143.295C-1.75207 156.921-23.3141 156.145-34.4869 141.677-44.2149 129.081-42.0758 111.016-29.6749 101.04Z" fill="#FFFFFF"/><path d="M26.5206 158.219 174.021-16.5629C175.593-18.4254 177.906-19.5 180.343-19.5 187.181-19.5 191.066-11.6763 186.934-6.22865L48.7287 175.991C43.9295 182.319 34.8792 183.492 28.6251 178.598 22.2753 173.629 21.3203 164.381 26.5206 158.219Z" fill="#FFFFFF"/></g></g></svg>