<svg width="175" height="178" viewBox="0 0 175 178" xmlns="http://www.w3.org/2000/svg" xmlns:xlink="http://www.w3.org/1999/xlink" fill="none" overflow="hidden"><mask maskUnits="userSpaceOnUse" x="6" y="0" width="162" height="162" id="mask0_23_381"><rect x="6" y="0" rx="23" width="162" height="162" fill="#FFBF00"/></mask><rect x="0" y="0" rx="33" width="175" height="178" fill="#FF9A00"/><rect x="6" y="0" rx="23" width="162" height="162" fill="#FFBF00"/><rect x="14" y="8" rx="23" width="146" height="146" fill="#FF9A00"/><rect x="17" y="9" rx="23" width="140" height="140" fill="#FFBF00"/><path d="M147.664 22.8944 144.673 19.041C143.695 17.7812 142.266 16.9506 140.688 16.7246 137.754 16.3047 134.738 18.0995 135.075 21.0437 135.517 24.9043 137.866 28.3548 140.703 31.1249 144.071 34.4137 149 31.5013 149 26.794 149 25.3819 148.53 24.0099 147.664 22.8944Z" fill="#D9D9D9"/><path d="M45.6556 72.2043C43.4481 75.0781 43.4481 79.077 45.6556 81.9508L70.2832 114.013C74.9382 120.073 84.6276 116.781 84.6276 109.139L84.6276 97.7372 122.135 97.7372C126.553 97.7372 130.135 94.1555 130.135 89.7372L130.135 63.3011C130.135 58.8828 126.553 55.3011 122.135 55.3011L84.6276 55.3011 84.6276 45.0156C84.6276 37.374 74.9382 34.0822 70.2832 40.1423L45.6556 72.2043Z" fill="#D17724" fill-rule="evenodd" clip-rule="evenodd"/><g mask="url(#mask0_23_381)"><g opacity="0.35"><path d="M-29.6749 105.04 122.242-17.1727C125.261-19.6011 129.193-20.5842 132.999-19.8623 143.111-17.9444 147.256-5.72082 140.395 1.95169L10.4323 147.295C-1.75207 160.921-23.3141 160.145-34.4869 145.677-44.2149 133.081-42.0758 115.016-29.6749 105.04Z" fill="#FFFFFF"/><path d="M26.5206 162.219 174.021-12.5629C175.593-14.4254 177.906-15.5 180.343-15.5 187.181-15.5 191.066-7.67634 186.934-2.22865L48.7287 179.991C43.9295 186.319 34.8792 187.492 28.6251 182.598 22.2753 177.629 21.3203 168.381 26.5206 162.219Z" fill="#FFFFFF"/></g></g></svg>