<svg width="740" height="740" viewBox="0 0 740 740" xmlns="http://www.w3.org/2000/svg" xmlns:xlink="http://www.w3.org/1999/xlink" fill="none" overflow="hidden"><mask maskUnits="userSpaceOnUse" x="62" y="40" width="616" height="616" id="mask0_34_38"><circle cx="370" cy="348" r="308" fill="#FFBF00"/></mask><circle cx="370" cy="370" r="366.5" stroke="#FFFFFF" stroke-width="7" fill="#B4C7E7"/><circle cx="370" cy="348" r="341" fill="#D6DCE5"/><path d="M185.052 427.83C186.1 428.878 185.533 429.76 180.713 434.588 177.908 437.398 177.908 437.398 178.953 438.442 179.998 439.487 179.998 439.487 176.995 442.49 173.992 445.493 173.992 445.493 175.037 446.538 176.082 447.583 176.082 447.583 173.993 449.672 171.904 451.761 171.904 451.761 172.949 452.806 173.994 453.851 173.994 453.851 172.949 454.895 171.934 455.91 171.93 455.965 172.797 456.832 173.689 457.724 173.689 457.724 171.927 459.85 170.164 461.977 170.164 461.977 171.035 463.006 171.851 463.971 171.85 464.102 171.022 465.081 170.191 466.062 170.191 466.188 171.023 467.17 171.856 468.155 171.856 468.276 171.009 469.275 170.16 470.278 170.16 470.384 171.009 471.234 171.884 472.108 171.879 472.161 170.863 473.177 169.819 474.221 169.819 474.221 170.864 475.266 171.903 476.306 171.903 476.317 170.898 477.322 169.887 478.333 169.887 478.333 171.795 480.605 173.702 482.877 173.702 482.877 172.806 483.773 171.935 484.644 171.939 484.698 172.955 485.714 174 486.759 174 486.759 172.956 487.803 171.911 488.848 171.911 488.848 173.855 490.791 175.798 492.734 175.798 492.734 174.9 493.795 174.002 494.855 174.002 494.855 175.935 496.94 177.868 499.026 177.868 499.026 176.98 500.075 176.092 501.124 176.092 501.124 178.041 503.224 179.989 505.325 179.989 505.325 179.123 506.191 178.111 507.203 178.832 508.302 183.707 513.177 186.281 515.751 186.281 515.751 185.367 516.665 184.453 517.579 184.453 517.579 192.812 525.938 201.172 534.298 201.172 534.298 202.086 533.384 203 532.47 203 532.47 205.443 534.913 210.181 539.652 211.292 540.373 212.299 539.367 213.165 538.501 213.165 538.501 215.265 540.449 217.366 542.397 217.366 542.397 218.426 541.499 219.487 540.601 219.487 540.601 221.561 542.675 223.635 544.749 223.635 544.749 224.679 543.705 225.724 542.66 225.724 542.66 227.683 544.619 229.642 546.578 229.642 546.578 230.687 545.534 231.731 544.489 231.731 544.489 232.907 545.665 234.082 546.84 234.082 546.84 235.127 545.796 236.171 544.752 236.171 544.752 238.13 546.711 240.089 548.67 240.089 548.67 241.134 547.625 242.178 546.581 242.178 546.581 243.223 547.626 244.268 548.671 244.268 548.671 245.313 547.626 246.357 546.582 246.357 546.582 247.402 547.627 248.447 548.672 248.447 548.672 249.491 547.627 250.536 546.583 250.536 546.583 251.581 547.627 252.626 548.672 252.626 548.672 253.67 547.628 254.685 546.613 254.74 546.609 255.607 547.475 256.499 548.367 256.499 548.367 258.625 546.605 260.752 544.843 260.752 544.843 261.781 545.714 262.811 546.585 262.811 546.585 264.911 544.638 267.011 542.69 267.011 542.69 268.045 543.724 269.079 544.758 269.079 544.758 271.168 542.669 273.257 540.58 273.257 540.58 274.144 541.467 275.031 542.354 275.031 542.354 277.305 540.45 279.579 538.546 279.579 538.546 280.466 539.433 281.353 540.321 281.353 540.321 283.509 538.168 289.788 531.895 291.807 530.407 292.752 531.352 293.627 532.227 293.627 532.227 301.983 523.871 310.339 515.515 310.339 515.515 309.464 514.64 308.483 513.659 309.971 511.71 317.324 504.352 320.521 501.152 320.521 501.152 319.647 500.278 318.717 499.348 320.373 497.121 326.698 490.796 328.615 488.879 328.615 488.879 327.701 487.964 326.787 487.05 326.787 487.05 328.286 485.547 332.287 481.537 333.062 480.269 332.102 479.309 331.225 478.432 331.225 478.432 333.667 475.99 338.417 471.24 339.126 470.144 338.107 469.125 337.23 468.248 337.23 468.248 338.758 466.719 342.554 462.923 343.256 461.74 342.284 460.768 341.407 459.891 341.407 459.891 344.41 456.888 347.413 453.885 347.413 453.885 346.368 452.84 345.323 451.795 345.323 451.795 348.457 448.662 351.59 445.528 351.59 445.528 350.545 444.483 349.5 443.439 349.5 443.439 352.488 440.451 355.475 437.464 355.475 437.464 354.576 436.404 353.677 435.343 353.677 435.343 355.756 433.113 357.834 430.883 357.834 430.883 356.8 429.849 355.766 428.814 355.766 428.814 357.855 426.725 359.944 424.636 359.944 424.636 359.066 423.758 358.077 422.769 358.64 421.774 362.23 418.175 363.86 416.541 363.86 416.541 362.815 415.496 361.77 414.451 361.77 414.451 363.859 412.362 365.948 410.273 365.948 410.273 365.061 409.386 364.173 408.499 364.173 408.499 366.077 406.225 367.982 403.951 367.982 403.951 367.122 403.091 366.262 402.231 366.262 402.231 368.166 399.957 370.07 397.683 370.07 397.683 369.183 396.796 368.295 395.909 368.295 395.909 369.693 394.511 373.323 390.881 374.049 389.651 373.116 388.717 372.266 387.867 372.266 387.867 374.17 385.593 376.074 383.32 376.074 383.32 375.187 382.432 374.3 381.545 374.3 381.545 376.389 379.456 378.478 377.367 378.478 377.367 377.433 376.322 376.388 375.278 376.388 375.278 378.477 373.189 380.566 371.1 380.566 371.1 379.521 370.055 378.476 369.01 378.476 369.01 380.565 366.921 382.654 364.832 382.654 364.832 381.609 363.787 380.564 362.742 380.564 362.742 382.653 360.653 384.742 358.564 384.742 358.564 383.864 357.686 382.588 356.41 377.77 361.366 468.613 270.518 551.828 187.299 551.828 187.299 550.929 186.238 550.057 185.209 550.061 185.142 551.06 183.987 552.057 182.835 552.062 182.769 551.19 181.898 550.337 181.044 550.337 180.952 551.205 180.085 552.097 179.193 552.094 179.146 551.074 178.126 550.029 177.081 550.029 177.081 551.073 176.037 552.118 174.992 552.118 174.992 547.938 170.812 543.759 166.633 543.759 166.633 542.714 167.677 541.67 168.722 541.67 168.722 539.58 166.632 537.49 164.542 537.49 164.542 535.547 166.485 533.605 168.427 533.605 168.427 532.544 167.529 531.484 166.63 531.484 166.63 528.342 169.625 525.2 172.62 525.2 172.62 524.294 171.714 523.388 170.808 523.388 170.808 442.635 251.558 352.937 341.254 356.048 338.226 354.821 336.999 353.973 336.151 353.973 336.151 351.699 338.055 349.426 339.959 349.426 339.959 348.566 339.099 347.706 338.24 347.706 338.24 345.432 340.144 343.158 342.048 343.158 342.048 342.298 341.188 341.438 340.328 341.438 340.328 339.164 342.232 336.89 344.136 336.89 344.136 336.014 343.26 335.138 342.383 335.138 342.383 333.038 344.331 330.938 346.278 330.938 346.278 329.888 345.39 328.839 344.501 328.839 344.501 326.755 346.434 324.67 348.366 324.67 348.366 323.621 347.478 322.571 346.589 322.571 346.589 320.487 348.522 318.402 350.455 318.402 350.455 317.351 349.564 316.299 348.673 316.299 348.673 313.303 351.522 310.307 354.371 310.307 354.371 309.246 353.472 308.185 352.574 308.185 352.574 306.112 354.647 304.039 356.72 304.039 356.72 302.994 355.675 301.949 354.63 301.949 354.63 299.86 356.719 297.771 358.808 297.771 358.808 296.726 357.763 295.681 356.718 295.681 356.718 292.678 359.721 289.676 362.724 289.676 362.724 288.785 361.833 287.894 360.942 287.894 360.942 285.489 362.977 283.085 365.011 283.085 365.011 282.238 364.164 281.284 363.211 280.248 363.807 276.685 367.36 275.051 368.989 275.051 368.989 274.174 368.112 273.202 367.141 272.019 367.842 268.223 371.638 266.694 373.166 266.694 373.166 265.817 372.289 264.854 371.326 263.657 372.024 259.997 375.685 258.599 377.082 258.599 377.082 257.684 376.168 256.77 375.254 256.77 375.254 255.242 376.782 251.446 380.578 250.262 381.28 249.291 380.308 248.413 379.431 248.413 379.431 246.885 380.959 243.089 384.755 241.905 385.457 240.934 384.485 240.057 383.608 240.057 383.608 236.923 386.742 233.79 389.875 233.79 389.875 232.745 388.83 231.7 387.785 231.7 387.785 227.977 391.504 222.186 397.288 221.384 397.837 220.304 396.757 219.426 395.879 219.426 395.879 214.204 401.102 208.982 406.324 208.982 406.324 207.937 405.279 206.892 404.234 206.892 404.234 195.533 415.593 184.174 426.952 184.174 426.952 185.052 427.83ZM214.598 413.068C219.511 408.498 219.511 408.498 220.384 409.371 221.257 410.244 221.257 410.244 223.305 408.196 229.704 401.798 231.984 400.081 232.888 400.985 233.733 401.829 233.733 401.829 238.101 397.842 242.469 393.854 242.469 393.854 243.353 394.738 244.238 395.623 244.238 395.623 246.68 393.181 251.43 388.431 252.526 387.722 253.545 388.741 254.422 389.618 254.422 389.618 255.951 388.09 259.747 384.294 260.93 383.592 261.902 384.564 262.779 385.441 262.779 385.441 264.414 383.811 268.013 380.222 269.008 379.658 269.997 380.647 270.875 381.525 270.875 381.525 273.094 379.305 275.314 377.086 275.314 377.086 276.359 378.131 277.404 379.176 277.404 379.176 280.407 376.173 283.409 373.17 283.409 373.17 284.454 374.215 285.499 375.26 285.499 375.26 287.588 373.171 289.677 371.082 289.677 371.082 290.722 372.126 291.767 373.171 291.767 373.171 294.754 370.184 297.741 367.197 297.741 367.197 298.802 368.096 299.863 368.994 299.863 368.994 302.093 366.916 304.323 364.837 304.323 364.837 305.204 365.719 306.086 366.6 306.086 366.6 308.212 364.838 310.339 363.076 310.339 363.076 311.368 363.947 312.336 364.765 312.462 364.764 313.458 363.92 315.162 362.477 316.849 364.285 315.271 365.863 314.252 366.883 314.205 366.886 313.312 365.993 312.398 365.079 312.398 365.079 309.956 367.521 305.206 372.271 304.11 372.98 303.091 371.961 302.214 371.084 302.214 371.084 299.641 373.657 294.754 378.544 293.67 379.252 292.645 378.227 291.768 377.35 291.768 377.35 289.089 380.024 284.398 384.707 283.504 385.275 282.461 384.233 281.583 383.355 281.583 383.355 277.405 387.533 273.227 391.711 273.227 391.711 272.182 390.666 271.138 389.621 271.138 389.621 267.414 393.34 261.623 399.124 260.822 399.673 259.742 398.593 258.864 397.715 258.864 397.715 253.511 403.068 248.158 408.421 248.158 408.421 247.28 407.543 246.135 406.398 245.588 406.822 236.474 415.93 229.618 422.782 229.618 422.782 228.703 421.868 227.789 420.954 227.789 420.954 215.516 433.226 203.243 445.499 203.243 445.499 204.151 446.407 205.059 447.314 205.059 447.314 200.888 451.63 196.716 455.945 196.716 455.945 197.615 457.005 198.513 458.066 198.513 458.066 195.526 461.053 192.539 464.04 192.539 464.04 193.584 465.085 194.629 466.13 194.629 466.13 192.54 468.219 190.451 470.308 190.451 470.308 191.496 471.353 192.541 472.398 192.541 472.398 190.452 474.487 188.363 476.576 188.363 476.576 189.408 477.621 190.453 478.666 190.453 478.666 189.408 479.71 188.393 480.725 188.389 480.78 189.256 481.647 190.147 482.538 190.147 482.538 188.373 484.68 186.598 486.823 186.598 486.823 187.612 487.837 188.626 488.851 188.626 488.851 187.451 490.026 186.282 491.195 186.281 491.206 187.191 492.115 188.061 492.986 188.061 493.073 187.191 493.944 185.695 495.439 181.915 491.532 183.288 489.91 184.16 488.881 184.156 488.815 183.156 487.66 182.164 486.512 182.158 486.437 183.003 485.592 183.88 484.716 183.88 484.716 182.117 482.589 180.354 480.461 180.354 480.461 181.224 479.432 182.042 478.465 182.041 478.338 181.196 477.342 180.347 476.339 180.347 476.233 181.196 475.383 182.07 474.509 182.066 474.457 181.049 473.44 180.004 472.395 180.004 472.395 181.049 471.351 182.093 470.306 182.093 470.306 181.048 469.261 180.003 468.216 180.003 468.216 181.048 467.172 182.092 466.128 182.092 466.128 181.048 465.083 180.005 464.04 180.005 464.035 181.031 463.009 182.032 462.009 182.035 461.951 181.162 460.92 180.263 459.859 180.263 459.859 182.21 457.759 184.158 455.659 184.158 455.659 183.282 454.783 182.406 453.907 182.406 453.907 184.31 451.633 186.214 449.359 186.214 449.359 185.364 448.509 184.422 447.567 185.152 446.35 188.917 442.585 190.445 441.056 190.445 441.056 189.542 440.153 188.638 439.25 188.638 439.25 190.573 437.137 194.404 432.954 209.787 417.543 214.598 413.068ZM243.027 423.658C243.955 424.586 246.981 422.13 255.928 413.188 258.605 410.513 258.605 410.513 259.488 411.395 260.37 412.277 260.37 412.277 266.698 406.333 273.026 400.388 273.026 400.388 273.871 401.233 274.776 402.137 277.055 400.422 283.455 394.023 285.503 391.975 285.503 391.975 286.387 392.859 287.272 393.744 287.272 393.744 291.64 389.756 296.008 385.768 296.008 385.768 296.892 386.653 297.777 387.537 297.777 387.537 300.35 384.964 305.236 380.078 306.321 379.369 307.345 380.394 308.223 381.271 308.223 381.271 310.901 378.597 315.592 373.914 316.487 373.346 317.529 374.388 318.407 375.266 318.407 375.266 321.541 372.133 324.674 368.999 324.674 368.999 325.719 370.044 326.764 371.089 326.764 371.089 320.497 377.356 314.23 383.623 314.23 383.623 313.357 382.75 312.379 381.772 309.467 384.211 298.367 395.308 293.601 400.073 293.601 400.073 292.729 399.201 291.806 398.278 285.828 403.669 267.945 421.55 262.787 426.706 262.787 426.706 261.873 425.792 260.959 424.878 260.959 424.878 241.244 444.592 221.529 464.307 221.529 464.307 222.444 465.221 223.358 466.136 223.358 466.136 219.638 469.857 209.622 479.878 207.169 482.848 208.124 483.803 208.997 484.676 208.997 484.676 205.51 488.163 199.664 494.009 198.967 495.014 200.026 496.073 200.875 496.922 200.87 496.983 199.859 497.994 198.814 499.039 198.814 499.039 197.769 497.994 196.749 496.974 196.746 496.927 197.638 496.035 198.53 495.143 198.527 495.096 197.507 494.076 196.465 493.034 196.465 493.029 197.491 492.002 198.491 491.002 198.495 490.944 197.621 489.913 196.772 488.91 196.772 488.795 197.621 487.792 198.464 486.796 198.466 486.679 197.648 485.861 196.776 484.989 196.776 484.989 198.68 482.715 200.584 480.441 200.584 480.441 199.712 479.569 198.873 478.73 198.879 478.652 199.869 477.507 200.869 476.352 200.873 476.286 200 475.256 199.102 474.196 199.102 474.196 200.484 472.814 204.128 469.17 204.826 467.971 203.864 467.009 202.986 466.132 202.986 466.132 204.515 464.603 208.311 460.807 209.012 459.624 208.041 458.652 207.163 457.775 207.163 457.775 224.659 440.28 242.154 422.785 242.154 422.785 243.027 423.658ZM284.463 419.659C285.508 420.704 285.508 420.704 295.823 410.389 306.137 400.075 306.137 400.075 307.014 400.952 308.146 402.084 308.889 401.502 318.188 392.204 324.939 385.453 324.939 385.453 325.853 386.367 326.767 387.282 326.767 387.282 329.206 384.843 338.104 375.945 341.43 373.221 342.315 374.106 343.157 374.948 343.157 374.948 345.299 373.174 347.441 371.399 347.441 371.399 348.293 372.251 349.28 373.237 347.758 375.165 339.367 383.561 335.125 387.806 335.125 387.806 336.008 388.689 336.892 389.573 336.892 389.573 326.771 400.081 316.65 410.589 316.65 410.589 317.49 411.429 318.37 412.308 313.8 417.485 299.679 431.61 295.958 435.332 295.958 435.332 296.83 436.204 297.844 437.217 292.508 442.962 265.015 470.454 241.715 493.755 238.093 497.061 237.034 496.001 236.161 495.128 236.161 495.129 233.223 498.065 225.676 505.606 223.371 507.406 222.443 506.478 221.601 505.636 221.601 505.636 217.364 509.494 213.126 513.351 213.126 513.351 212.24 512.464 211.353 511.578 211.353 511.578 209.264 513.667 207.175 515.755 207.175 515.755 205.112 513.693 203.05 511.63 203.05 511.63 204.954 509.356 206.858 507.082 206.858 507.082 205.971 506.195 205.084 505.308 205.084 505.308 209.131 501.261 213.178 497.213 213.178 497.213 212.133 496.168 211.088 495.124 211.088 495.124 217.225 488.987 223.361 482.851 223.361 482.851 222.316 481.806 221.271 480.761 221.271 480.761 252.345 449.687 283.418 418.614 283.418 418.614 284.463 419.659ZM533.81 176.399C535.739 174.803 535.739 174.803 536.747 175.81 537.723 176.787 537.781 176.79 538.668 175.904 539.582 174.99 539.582 174.99 541.671 177.079 543.761 179.169 543.761 179.169 542.863 180.067 542.014 180.917 542.014 181.023 542.863 182.026 543.762 183.087 543.762 183.087 537.706 189.304 526.817 200.483 527.647 200.134 522.993 195.48 518.982 191.47 518.982 191.47 519.992 190.26 521.784 188.113 531.821 178.045 533.81 176.399ZM350.664 386.634C351.579 387.548 351.579 387.548 348.576 390.551 345.573 393.554 345.573 393.554 344.659 392.639 343.744 391.725 343.744 391.725 346.747 388.722 349.75 385.719 349.75 385.719 350.664 386.634ZM222.166 517.299C223.678 516.112 223.716 516.107 224.58 516.971 225.458 517.848 225.458 517.848 229.636 513.671 233.813 509.493 233.813 509.493 234.858 510.537 235.903 511.582 235.903 511.582 244.259 503.226 252.615 494.871 252.615 494.871 253.66 495.915 254.705 496.96 254.705 496.96 274.289 477.376 293.873 457.792 293.873 457.792 292.828 456.747 291.783 455.702 291.783 455.702 305.101 442.385 318.418 429.068 318.418 429.068 317.373 428.023 316.328 426.978 316.328 426.978 324.684 418.622 333.04 410.266 333.04 410.266 332.148 409.374 331.023 408.25 332.021 406.966 340.139 399.087 345.573 393.815 345.573 393.815 346.625 394.706 347.677 395.597 347.677 395.597 344.537 398.884 341.396 402.171 341.396 402.171 342.294 403.232 343.193 404.293 343.193 404.293 339.161 408.324 335.13 412.356 335.13 412.356 336.175 413.401 337.219 414.446 337.219 414.446 333.041 418.624 328.864 422.802 328.864 422.802 329.908 423.847 330.953 424.892 330.953 424.892 326.922 428.923 322.89 432.955 322.89 432.955 323.789 434.016 324.687 435.076 324.687 435.076 320.646 439.261 316.606 443.445 316.606 443.445 317.473 444.313 318.433 445.273 316.763 447.441 309.371 454.833 306.41 457.795 306.41 457.795 307.284 458.669 308.284 459.669 306.641 461.743 298.013 470.37 293.876 474.507 293.876 474.507 294.749 475.38 295.798 476.428 293.324 479.24 276.904 495.66 262.561 510.002 260.855 511.466 259.76 510.372 258.886 509.498 258.886 509.498 257.121 511.258 253.386 514.983 252.404 515.549 251.407 514.553 250.529 513.675 250.529 513.675 248.895 515.304 245.295 518.894 244.301 519.458 243.312 518.469 242.445 517.602 242.418 517.606 241.259 518.766 240.084 519.941 240.084 519.941 239.05 518.907 238.016 517.873 238.016 517.873 235.916 519.82 233.816 521.768 233.816 521.768 232.755 520.869 231.724 519.996 231.666 519.999 230.666 520.999 229.64 522.025 229.635 522.025 228.592 520.983 227.547 519.938 227.547 519.938 226.503 520.983 225.458 522.027 225.458 522.027 224.413 520.982 223.393 519.962 223.347 519.959 222.455 520.851 221.562 521.744 221.516 521.741 220.496 520.72 219.322 519.547 219.333 519.524 222.166 517.299ZM226.505 531.43C227.55 532.475 227.55 532.475 228.725 531.3 229.886 530.139 229.91 530.135 230.784 531.008 231.667 531.892 231.667 531.892 233.793 530.13 235.919 528.368 235.919 528.368 236.958 529.247 237.962 530.097 238.036 530.091 239.186 529.097 240.331 528.107 240.41 528.101 241.245 528.936 242.114 529.804 242.114 529.804 244.256 528.03 246.398 526.255 246.398 526.255 247.29 527.147 248.182 528.039 248.182 528.039 250.271 525.95 252.36 523.861 252.36 523.861 253.396 524.897 254.433 525.934 254.433 525.934 257.575 522.939 260.716 519.945 260.716 519.945 261.777 520.844 262.838 521.742 262.838 521.742 266.545 518.039 272.319 512.272 273.123 511.722 274.202 512.802 275.08 513.68 275.08 513.68 285.394 503.365 295.708 493.051 295.708 493.051 294.831 492.174 293.701 491.044 294.289 490.29 303.449 481.131 310.069 474.51 310.069 474.51 309.192 473.633 308.125 472.566 308.816 471.584 314.938 465.462 318.685 461.715 318.685 461.715 317.807 460.837 316.728 459.757 317.277 458.955 323.061 453.164 326.779 449.441 326.779 449.441 325.905 448.567 324.959 447.621 326.448 445.603 332.72 439.323 334.873 437.167 334.873 437.167 333.989 436.283 333.104 435.398 333.104 435.398 337.092 431.03 341.08 426.662 341.08 426.662 340.227 425.809 339.374 424.956 339.374 424.956 343.232 420.719 347.089 416.482 347.089 416.482 346.203 415.595 345.316 414.709 345.316 414.709 350.538 409.486 355.761 404.264 355.761 404.264 356.675 405.178 357.589 406.092 357.589 406.092 356.192 407.49 352.557 411.125 351.835 412.349 352.773 413.287 353.626 414.141 353.626 414.141 351.592 416.546 349.557 418.95 349.557 418.95 350.403 419.796 351.333 420.726 350.602 421.961 346.977 425.586 345.579 426.984 345.579 426.984 346.457 427.861 347.42 428.824 346.722 430.021 343.061 433.682 341.663 435.079 341.663 435.079 342.547 435.963 343.43 436.846 343.43 436.846 341.396 439.251 339.361 441.655 339.361 441.655 340.252 442.546 341.143 443.437 341.143 443.437 339.513 445.071 335.923 448.671 335.36 449.666 336.349 450.655 337.227 451.533 337.227 451.533 335.467 453.297 331.741 457.033 331.175 458.014 332.172 459.011 333.05 459.889 333.05 459.889 329.916 463.023 326.783 466.156 326.783 466.156 327.828 467.201 328.873 468.246 328.873 468.246 325.739 471.379 322.606 474.513 322.606 474.513 323.65 475.558 324.695 476.603 324.695 476.603 320.664 480.634 316.632 484.666 316.632 484.666 317.531 485.727 318.429 486.787 318.429 486.787 313.474 491.885 308.518 496.982 308.518 496.982 309.389 497.854 310.573 499.037 310.287 499.371 294.929 514.728 279.56 530.098 279.239 530.372 278.049 529.183 277.172 528.306 277.172 528.306 274.169 531.309 271.166 534.311 271.166 534.311 270.121 533.267 269.076 532.222 269.076 532.222 266.987 534.311 264.898 536.4 264.898 536.4 263.854 535.355 262.809 534.31 262.809 534.31 260.85 536.268 258.892 538.227 258.892 538.227 257.847 537.182 256.802 536.137 256.802 536.137 255.627 537.312 254.452 538.487 254.452 538.487 253.407 537.442 252.362 536.397 252.362 536.397 251.318 537.442 250.273 538.486 250.273 538.486 249.228 537.441 248.183 536.396 248.183 536.396 247.139 537.441 246.094 538.485 246.094 538.485 245.049 537.44 244.033 536.424 243.98 536.42 243.106 537.294 242.257 538.143 242.151 538.143 241.147 537.293 240.149 536.447 240.026 536.446 239.049 537.273 238.011 538.152 238.011 538.152 235.884 536.389 233.757 534.627 233.757 534.627 232.901 535.483 232.045 536.339 232.045 536.339 229.77 534.434 227.496 532.529 227.496 532.529 226.609 533.416 225.748 534.276 225.691 534.271 224.677 533.258 223.657 532.238 223.654 532.191 224.546 531.299 225.438 530.407 225.485 530.41 226.505 531.43Z" fill="#2F5597" fill-rule="evenodd" clip-rule="evenodd"/><g mask="url(#mask0_34_38)"><g opacity="0.35"><path d="M-58.1022 390.663 660.719-209.593C675.42-221.869 694.877-226.851 713.668-223.152 761.422-213.75 781.266-156.315 749.5-119.44L138.29 590.091C79.6074 658.214-27.088 654.4-80.7581 582.262-125.223 522.497-115.28 438.409-58.1022 390.663Z" fill="#FFFFFF"/><path d="M208.273 670.08 905.48-187.488C912.987-196.722 924.254-202.082 936.154-202.082 968.504-202.082 987.159-165.347 968.074-139.227L316.028 753.161C293.046 784.614 248.403 790.395 218.168 765.833 188.987 742.128 184.556 699.252 208.273 670.08Z" fill="#FFFFFF"/></g></g></svg>