<svg width="175" height="178" viewBox="0 0 175 178" xmlns="http://www.w3.org/2000/svg" xmlns:xlink="http://www.w3.org/1999/xlink" fill="none" overflow="hidden"><mask maskUnits="userSpaceOnUse" x="6" y="0" width="162" height="162" id="mask0_18_4"><rect x="6" y="0" width="162" height="162" fill="#FFBF00"/></mask><rect x="0" y="0" rx="33" width="175" height="178" fill="#B4C7E7"/><rect x="6" y="0" rx="23" width="162" height="162" fill="#D6DCE5"/><rect x="14" y="8" rx="23" width="146" height="146" fill="#B4C7E7"/><rect x="17" y="9" rx="23" width="140" height="140" fill="#D6DCE5"/><path d="M147.664 22.8944 144.673 19.041C143.695 17.7812 142.266 16.9506 140.688 16.7246 137.754 16.3047 134.738 18.0995 135.075 21.0437 135.517 24.9043 137.866 28.3548 140.703 31.1249 144.071 34.4137 149 31.5013 149 26.794 149 25.3819 148.53 24.0099 147.664 22.8944Z" fill="#D9D9D9"/><path d="M90.2889 44C88.761 44.0035 87.1407 44.5096 86.1278 45.1014 84.334 46.1499 70.5833 55.75 70.5833 55.75 70.5833 55.75 60.111 55.7422 58.8333 55.75 54.6014 55.7767 51.0309 59.4031 51 63.5834L51 94.9167C51.0462 99.2791 54.3973 102.791 58.8333 102.75 59.9406 102.74 70.5833 102.75 70.5833 102.75 70.5833 102.75 84.6019 112.446 86.3722 113.521 87.3992 114.144 88.564 114.518 90.1667 114.5 94.5443 114.45 98.0513 110.818 98 106.544L98 79.25 98 51.8334C97.9957 47.4353 94.522 43.9906 90.2889 44ZM110.24 63.5834C109.247 63.4455 108.287 63.6652 107.424 64.3177 105.699 65.6228 105.263 68.1004 106.568 69.8257 108.598 72.5098 109.75 75.7728 109.75 79.25 109.75 82.6896 108.59 85.9816 106.568 88.6743 105.269 90.4043 105.695 92.8835 107.424 94.1823 109.154 95.4811 111.634 95.0553 112.932 93.3257 115.964 89.288 117.583 84.4016 117.583 79.25 117.583 74.0585 115.987 69.2128 112.932 65.1743 112.28 64.3119 111.232 63.7212 110.24 63.5834Z" fill="#2F5597"/><path d="M119.421 56.1829C120.447 55.1853 121.588 54.8494 122.768 55.0601 123.949 55.2709 125.194 56.1739 125.97 57.4925 129.601 63.6667 131.5 71.0751 131.5 79.0122 131.5 86.8882 129.575 94.3589 125.97 100.532 124.426 103.176 121.478 103.827 119.421 101.841 117.365 99.8559 119.172 96.3033 120.716 93.6584 123.121 89.5416 124.5 84.5087 124.5 79.25 124.5 73.9339 123.13 68.9453 120.716 64.8417 119.165 62.204 117.37 58.1781 119.421 56.1829Z" fill="#2F5597"/><g mask="url(#mask0_18_4)"><g opacity="0.35"><path d="M-29.6749 105.04 122.242-17.1727C125.261-19.6011 129.193-20.5842 132.999-19.8623 143.111-17.9444 147.256-5.72082 140.395 1.95169L10.4323 147.295C-1.75207 160.921-23.3141 160.145-34.4869 145.677-44.2149 133.081-42.0758 115.016-29.6749 105.04Z" fill="#FFFFFF"/><path d="M26.5206 162.219 174.021-12.5629C175.593-14.4254 177.906-15.5 180.343-15.5 187.181-15.5 191.066-7.67634 186.934-2.22865L48.7287 179.991C43.9295 186.319 34.8792 187.492 28.6251 182.598 22.2753 177.629 21.3203 168.381 26.5206 162.219Z" fill="#FFFFFF"/></g></g></svg>